<svg width="20" height="20" viewBox="0 0 20 20" fill="none" xmlns="http://www.w3.org/2000/svg">
<path d="M9.99983 1C12.3357 3.06658 15.3843 4.14257 18.4998 4C18.9534 5.54302 19.0922 7.16147 18.908 8.75918C18.7237 10.3569 18.2202 11.9013 17.4272 13.3005C16.6343 14.6998 15.5682 15.9254 14.2923 16.9045C13.0164 17.8836 11.5566 18.5962 9.99983 19C8.44305 18.5962 6.98331 17.8836 5.70738 16.9045C4.43144 15.9254 3.36534 14.6998 2.57243 13.3005C1.77952 11.9013 1.27597 10.3569 1.09171 8.75918C0.907451 7.16147 1.04624 5.54302 1.49983 4C4.61536 4.14257 7.664 3.06658 9.99983 1Z" stroke="#208BC7" stroke-width="2" stroke-linecap="round" stroke-linejoin="round"/>
</svg>
