<svg width="20" height="20" viewBox="0 0 20 20" fill="none" xmlns="http://www.w3.org/2000/svg">
<path d="M15.67 15.667C14.1273 17.2844 12.1635 18.4387 10 19C8.44321 18.5962 6.98348 17.8836 5.70754 16.9045C4.43161 15.9254 3.36551 14.6998 2.5726 13.3005C1.77968 11.9013 1.27613 10.3569 1.09188 8.75918C0.907617 7.16147 1.04641 5.54302 1.5 4C2.294 4.036 3.083 3.994 3.857 3.876M6.985 2.95C8.08211 2.45489 9.09848 1.79753 10 1C12.3358 3.06658 15.3845 4.14257 18.5 4C18.9577 5.55707 19.0948 7.19081 18.9029 8.80238C18.7111 10.4139 18.1944 11.9699 17.384 13.376M1 1L19 19" stroke="#DABE41" stroke-width="2" stroke-linecap="round" stroke-linejoin="round"/>
</svg>
