<svg width="200" height="200" viewBox="0 0 200 200" fill="none" xmlns="http://www.w3.org/2000/svg">
<path d="M124.874 160.053C91.7084 173.791 53.6855 158.041 39.9478 124.875C26.21 91.7086 41.9596 53.686 75.1254 39.9483C108.291 26.2105 146.314 41.9601 160.052 75.1256C173.789 108.292 158.04 146.315 124.874 160.053Z" fill="white"/>
<path d="M145.462 118.29C135 143.547 106.044 155.541 80.7866 145.079C55.5293 134.617 43.5354 105.662 53.9972 80.4037C64.4591 55.147 93.4146 43.1531 118.673 53.6149C143.93 64.0768 155.924 93.0327 145.462 118.29Z" fill="black"/>
<path d="M44.062 79.5144L11.3435 67.0444L4.11328 104.098L12.7532 134.195L44.6848 119.821L44.062 79.5144Z" fill="black"/>
<path d="M120.881 43.6839L133.106 10.873L95.9994 3.92041L65.9673 12.7853L80.5804 44.6083L120.881 43.6839Z" fill="black"/>
<path d="M155.736 122.003L188.638 133.982L195.313 96.8236L186.223 66.8589L154.51 81.7096L155.736 122.003Z" fill="black"/>
<path d="M79.4374 155.756L67.7056 188.746L104.912 195.143L134.808 185.829L119.72 154.228L79.4374 155.756Z" fill="black"/>
<path d="M46.4772 125.997L15.7729 138.715L30.5166 163.223L60.7939 185.506L73.9963 153.632L46.4772 125.997Z" fill="white"/>
<path d="M74.1856 47.243L61.865 16.377L37.1689 30.8027L14.4966 60.7897L46.1972 74.4034L74.1856 47.243Z" fill="white"/>
<path d="M154.183 73.6983L184.624 60.3616L169.387 36.1573L138.665 14.4917L126.11 46.6262L154.183 73.6983Z" fill="white"/>
<path d="M125.352 153.826L138.087 184.523L162.586 169.766L184.853 139.477L152.971 126.292L125.352 153.826Z" fill="white"/>
<path d="M138.269 7.61206C119.996 0.0433559 99.8895 -1.93704 80.4915 1.92156C61.0929 5.78006 43.2746 15.3042 29.2894 29.2894C15.3041 43.2747 5.78001 61.093 1.92151 80.4915C-1.93699 99.8895 0.0433068 119.995 7.61211 138.268C15.1809 156.541 27.9981 172.158 44.443 183.147C60.8879 194.135 80.2215 200 100.001 200C119.779 200 139.113 194.135 155.558 183.147C172.002 172.158 184.82 156.541 192.389 138.268C202.508 113.762 202.492 86.2435 192.346 61.7492C182.201 37.2546 162.752 17.785 138.269 7.61206ZM80.1005 148.041C70.5985 144.106 62.4775 137.441 56.7636 128.889C51.0498 120.338 48.0001 110.284 48.0001 100C48.0001 89.7155 51.0498 79.6615 56.7636 71.1105C62.4775 62.5591 70.5985 55.8941 80.1005 51.9584C89.6025 48.0226 100.058 46.9928 110.145 48.9993C120.232 51.0057 129.498 55.9582 136.77 63.2305C144.042 70.5025 148.995 79.7685 151.001 89.8555C153.008 99.9425 151.978 110.397 148.042 119.899C142.752 132.63 132.628 142.743 119.891 148.018C107.154 153.294 92.8435 153.302 80.1005 148.041ZM153.737 73.4095C147.931 61.6106 138.391 52.0584 126.6 46.2366L138.869 16.6171C158.485 25.7445 174.24 41.5185 183.343 61.1464L153.737 73.4095ZM119.209 43.1752C106.754 38.9539 93.2535 38.9629 80.8055 43.2009L68.5415 13.5942C88.8575 6.15216 111.152 6.13846 131.477 13.5556L119.209 43.1752ZM73.4095 46.2641C61.6105 52.07 52.0584 61.6094 46.2366 73.4005L16.617 61.1321C25.7445 41.5153 41.5184 25.7607 61.1464 16.6574L73.4095 46.2641ZM43.1751 80.7924C38.9539 93.2465 38.9629 106.746 43.2009 119.195L13.5941 131.458C6.15211 111.142 6.13851 88.8485 13.5556 68.5232L43.1751 80.7924ZM46.264 126.59C52.07 138.389 61.6094 147.941 73.4005 153.763L61.1321 183.383C41.5153 174.255 25.7607 158.481 16.6573 138.853L46.264 126.59ZM80.7915 156.825C93.2465 161.046 106.747 161.037 119.196 156.799L131.459 186.406C111.143 193.848 88.8485 193.861 68.5231 186.444L80.7915 156.825ZM126.591 153.736C138.39 147.93 147.942 138.39 153.764 126.599L183.384 138.868C174.256 158.484 158.482 174.239 138.854 183.342L126.591 153.736ZM156.825 119.208C161.047 106.753 161.038 93.2535 156.8 80.8055L186.406 68.5415C193.848 88.8575 193.862 111.151 186.445 131.477L156.825 119.208Z" fill="black"/>
<path d="M76.6646 133.857C78.8856 135.337 81.2836 136.625 83.8476 137.687L82.6996 140.459C79.9536 139.321 77.3846 137.938 75.0016 136.35L76.6646 133.857ZM91.0476 142.996C88.2406 142.435 85.4456 141.596 82.6996 140.459L83.8476 137.687C86.4126 138.749 89.0186 139.535 91.6356 140.058L91.0476 142.996ZM59.0217 107.44C60.0893 112.782 62.1991 117.875 65.2216 122.408L62.7264 124.071C59.4864 119.212 57.2253 113.754 56.0809 108.027L59.0217 107.44ZM124.455 136.348C119.596 139.588 114.138 141.849 108.411 142.994L107.823 140.054C113.165 138.986 118.259 136.876 122.791 133.854L124.455 136.348ZM58.6167 82.3173C59.7541 79.5713 61.1367 77.0013 62.7251 74.6183L65.219 76.2813C63.7385 78.5023 62.4505 80.9013 61.3884 83.4653C60.3262 86.0293 59.5409 88.6363 59.0175 91.2533L56.0786 90.6643C56.6401 87.8573 57.4795 85.0623 58.6167 82.3173ZM140.842 116.376C139.705 119.121 138.322 121.69 136.733 124.073L134.24 122.411C135.721 120.19 137.009 117.792 138.071 115.228C139.133 112.663 139.918 110.056 140.442 107.439L143.38 108.027C142.818 110.834 141.98 113.63 140.842 116.376ZM91.6356 58.6388C86.2936 59.7064 81.1996 61.8162 76.6676 64.8388L75.0036 62.3431C79.8626 59.1031 85.3206 56.8421 91.0476 55.6976L91.6356 58.6388ZM136.732 74.6203C139.972 79.4793 142.233 84.9373 143.378 90.6643L140.437 91.2533C139.37 85.9103 137.26 80.8173 134.237 76.2853L136.732 74.6203ZM116.759 58.2338C119.505 59.3711 122.074 60.7537 124.457 62.3418L122.795 64.8361C120.574 63.3556 118.175 62.0676 115.611 61.0055C113.047 59.9434 110.44 59.1581 107.823 58.6347L108.411 55.6953C111.218 56.2569 114.013 57.0965 116.759 58.2338Z" fill="white"/>
</svg>
