<svg width="201" height="200" viewBox="0 0 201 200" fill="none" xmlns="http://www.w3.org/2000/svg">
<path d="M125.773 160.053C92.6073 173.791 54.5844 158.041 40.8467 124.875C27.1089 91.7086 42.8585 53.686 76.0243 39.9483C109.19 26.2105 147.213 41.9601 160.951 75.1256C174.688 108.292 158.939 146.315 125.773 160.053Z" fill="white"/>
<path d="M146.361 118.29C135.899 143.547 106.943 155.541 81.6855 145.079C56.4282 134.617 44.4343 105.662 54.8961 80.4037C65.358 55.147 94.3135 43.1531 119.572 53.6149C144.829 64.0768 156.823 93.0327 146.361 118.29Z" fill="#2D9F31"/>
<path d="M44.9609 79.5144L12.2424 67.0444L5.01221 104.098L13.6521 134.195L45.5837 119.821L44.9609 79.5144Z" fill="#2D9F31"/>
<path d="M121.78 43.6839L134.005 10.873L96.8983 3.92041L66.8662 12.7853L81.4793 44.6083L121.78 43.6839Z" fill="#2D9F31"/>
<path d="M156.635 122.003L189.537 133.982L196.212 96.8236L187.122 66.8589L155.409 81.7096L156.635 122.003Z" fill="#2D9F31"/>
<path d="M80.3363 155.756L68.6045 188.746L105.811 195.143L135.707 185.829L120.619 154.228L80.3363 155.756Z" fill="#2D9F31"/>
<path d="M47.3761 125.997L16.6719 138.715L31.4155 163.223L61.6929 185.506L74.8953 153.632L47.3761 125.997Z" fill="white"/>
<path d="M75.0845 47.243L62.7639 16.377L38.0678 30.8027L15.3955 60.7897L47.0961 74.4034L75.0845 47.243Z" fill="white"/>
<path d="M155.082 73.6983L185.523 60.3616L170.286 36.1573L139.564 14.4917L127.009 46.6262L155.082 73.6983Z" fill="white"/>
<path d="M126.25 153.826L138.985 184.523L163.484 169.766L185.751 139.477L153.869 126.292L126.25 153.826Z" fill="white"/>
<path d="M139.167 7.61206C120.894 0.0433559 100.788 -1.93704 81.3904 1.92156C61.9918 5.78006 44.1735 15.3042 30.1883 29.2894C16.203 43.2747 6.67894 61.093 2.82044 80.4915C-1.03806 99.8895 0.942233 119.995 8.51103 138.268C16.0798 156.541 28.897 172.158 45.3419 183.147C61.7868 194.135 81.1204 200 100.899 200C120.677 200 140.011 194.135 156.456 183.147C172.9 172.158 185.718 156.541 193.287 138.268C203.406 113.762 203.39 86.2435 193.244 61.7492C183.099 37.2546 163.65 17.785 139.167 7.61206ZM80.9994 148.041C71.4974 144.106 63.3764 137.441 57.6625 128.889C51.9487 120.338 48.899 110.284 48.899 100C48.899 89.7155 51.9487 79.6615 57.6625 71.1105C63.3764 62.5591 71.4974 55.8941 80.9994 51.9584C90.5014 48.0226 100.956 46.9928 111.043 48.9993C121.13 51.0057 130.396 55.9582 137.668 63.2305C144.94 70.5025 149.893 79.7685 151.899 89.8555C153.906 99.9425 152.876 110.397 148.94 119.899C143.65 132.63 133.526 142.743 120.789 148.018C108.052 153.294 93.7424 153.302 80.9994 148.041ZM154.635 73.4095C148.829 61.6106 139.289 52.0584 127.498 46.2366L139.767 16.6171C159.383 25.7445 175.138 41.5185 184.241 61.1464L154.635 73.4095ZM120.107 43.1752C107.652 38.9539 94.1524 38.9629 81.7044 43.2009L69.4404 13.5942C89.7564 6.15216 112.05 6.13846 132.375 13.5556L120.107 43.1752ZM74.3084 46.2641C62.5094 52.07 52.9573 61.6094 47.1355 73.4005L17.5159 61.1321C26.6434 41.5153 42.4173 25.7607 62.0453 16.6574L74.3084 46.2641ZM44.074 80.7924C39.8528 93.2465 39.8618 106.746 44.0998 119.195L14.493 131.458C7.05104 111.142 7.03743 88.8485 14.4545 68.5232L44.074 80.7924ZM47.1629 126.59C52.9689 138.389 62.5083 147.941 74.2994 153.763L62.031 183.383C42.4142 174.255 26.6596 158.481 17.5562 138.853L47.1629 126.59ZM81.6904 156.825C94.1454 161.046 107.645 161.037 120.094 156.799L132.357 186.406C112.041 193.848 89.7474 193.861 69.422 186.444L81.6904 156.825ZM127.489 153.736C139.288 147.93 148.84 138.39 154.662 126.599L184.282 138.868C175.154 158.484 159.38 174.239 139.752 183.342L127.489 153.736ZM157.723 119.208C161.945 106.753 161.936 93.2534 157.698 80.8055L187.304 68.5415C194.746 88.8575 194.76 111.151 187.343 131.477L157.723 119.208Z" fill="#2D9F31"/>
<path d="M77.5635 133.857C79.7845 135.337 82.1825 136.625 84.7465 137.687L83.5985 140.459C80.8525 139.321 78.2835 137.938 75.9005 136.35L77.5635 133.857ZM91.9465 142.996C89.1395 142.435 86.3445 141.596 83.5985 140.459L84.7465 137.687C87.3115 138.749 89.9175 139.535 92.5345 140.058L91.9465 142.996ZM59.9206 107.44C60.9882 112.782 63.098 117.875 66.1205 122.408L63.6253 124.071C60.3853 119.212 58.1242 113.754 56.9798 108.027L59.9206 107.44ZM125.354 136.348C120.495 139.588 115.037 141.849 109.31 142.994L108.722 140.054C114.064 138.986 119.158 136.876 123.69 133.854L125.354 136.348ZM59.5156 82.3173C60.653 79.5713 62.0356 77.0013 63.624 74.6183L66.1179 76.2813C64.6374 78.5023 63.3494 80.9013 62.2873 83.4653C61.2251 86.0293 60.4398 88.6363 59.9164 91.2533L56.9775 90.6643C57.539 87.8573 58.3784 85.0623 59.5156 82.3173ZM141.741 116.376C140.604 119.121 139.221 121.69 137.632 124.073L135.139 122.411C136.62 120.19 137.908 117.792 138.97 115.228C140.032 112.663 140.817 110.056 141.341 107.439L144.279 108.027C143.717 110.834 142.879 113.63 141.741 116.376ZM92.5345 58.6388C87.1925 59.7064 82.0985 61.8162 77.5665 64.8388L75.9025 62.3431C80.7615 59.1031 86.2195 56.8421 91.9465 55.6976L92.5345 58.6388ZM137.631 74.6203C140.871 79.4793 143.132 84.9373 144.277 90.6643L141.336 91.2533C140.269 85.9103 138.159 80.8173 135.136 76.2853L137.631 74.6203ZM117.658 58.2338C120.404 59.3711 122.973 60.7537 125.356 62.3418L123.694 64.8361C121.473 63.3556 119.074 62.0676 116.51 61.0055C113.946 59.9434 111.339 59.1581 108.722 58.6347L109.31 55.6953C112.117 56.2569 114.912 57.0965 117.658 58.2338Z" fill="white"/>
</svg>
