<svg width="201" height="200" viewBox="0 0 201 200" fill="none" xmlns="http://www.w3.org/2000/svg">
<path d="M125.841 160.053C92.6747 173.791 54.6518 158.041 40.9141 124.875C27.1763 91.7086 42.9259 53.686 76.0917 39.9483C109.258 26.2105 147.281 41.9601 161.019 75.1256C174.756 108.292 159.007 146.315 125.841 160.053Z" fill="white"/>
<path d="M146.428 118.29C135.966 143.547 107.01 155.541 81.7529 145.079C56.4956 134.617 44.5017 105.662 54.9635 80.4037C65.4254 55.147 94.3809 43.1531 119.639 53.6149C144.896 64.0768 156.89 93.0327 146.428 118.29Z" fill="#F4AD04"/>
<path d="M45.0283 79.5144L12.3098 67.0444L5.07959 104.098L13.7195 134.195L45.6511 119.821L45.0283 79.5144Z" fill="#F4AD04"/>
<path d="M121.848 43.6839L134.073 10.873L96.9657 3.92041L66.9336 12.7853L81.5467 44.6083L121.848 43.6839Z" fill="#F4AD04"/>
<path d="M156.703 122.003L189.605 133.982L196.28 96.8236L187.19 66.8589L155.477 81.7096L156.703 122.003Z" fill="#F4AD04"/>
<path d="M80.4037 155.756L68.6719 188.746L105.879 195.143L135.775 185.829L120.687 154.228L80.4037 155.756Z" fill="#F4AD04"/>
<path d="M47.4435 125.997L16.7393 138.715L31.4829 163.223L61.7603 185.506L74.9627 153.632L47.4435 125.997Z" fill="white"/>
<path d="M75.1519 47.243L62.8313 16.377L38.1352 30.8027L15.4629 60.7897L47.1635 74.4034L75.1519 47.243Z" fill="white"/>
<path d="M155.15 73.6983L185.591 60.3616L170.354 36.1573L139.632 14.4917L127.077 46.6262L155.15 73.6983Z" fill="white"/>
<path d="M126.318 153.826L139.053 184.523L163.552 169.766L185.819 139.477L153.937 126.292L126.318 153.826Z" fill="white"/>
<path d="M139.235 7.61206C120.962 0.0433559 100.856 -1.93704 81.4578 1.92156C62.0592 5.78006 44.2409 15.3042 30.2557 29.2894C16.2704 43.2747 6.74632 61.093 2.88782 80.4915C-0.970682 99.8895 1.00962 119.995 8.57842 138.268C16.1472 156.541 28.9644 172.158 45.4093 183.147C61.8542 194.135 81.1878 200 100.967 200C120.745 200 140.079 194.135 156.524 183.147C172.968 172.158 185.786 156.541 193.355 138.268C203.474 113.762 203.458 86.2435 193.312 61.7492C183.167 37.2546 163.718 17.785 139.235 7.61206ZM81.0668 148.041C71.5648 144.106 63.4438 137.441 57.7299 128.889C52.0161 120.338 48.9664 110.284 48.9664 100C48.9664 89.7155 52.0161 79.6615 57.7299 71.1105C63.4438 62.5591 71.5648 55.8941 81.0668 51.9584C90.5688 48.0226 101.024 46.9928 111.111 48.9993C121.198 51.0057 130.464 55.9582 137.736 63.2305C145.008 70.5025 149.961 79.7685 151.967 89.8555C153.974 99.9425 152.944 110.397 149.008 119.899C143.718 132.63 133.594 142.743 120.857 148.018C108.12 153.294 93.8098 153.302 81.0668 148.041ZM154.703 73.4095C148.897 61.6106 139.357 52.0584 127.566 46.2366L139.835 16.6171C159.451 25.7445 175.206 41.5185 184.309 61.1464L154.703 73.4095ZM120.175 43.1752C107.72 38.9539 94.2198 38.9629 81.7718 43.2009L69.5078 13.5942C89.8238 6.15216 112.118 6.13846 132.443 13.5556L120.175 43.1752ZM74.3758 46.2641C62.5768 52.07 53.0247 61.6094 47.2029 73.4005L17.5833 61.1321C26.7108 41.5153 42.4847 25.7607 62.1127 16.6574L74.3758 46.2641ZM44.1414 80.7924C39.9202 93.2465 39.9292 106.746 44.1672 119.195L14.5604 131.458C7.11842 111.142 7.10482 88.8485 14.5219 68.5232L44.1414 80.7924ZM47.2303 126.59C53.0363 138.389 62.5757 147.941 74.3668 153.763L62.0984 183.383C42.4816 174.255 26.727 158.481 17.6236 138.853L47.2303 126.59ZM81.7578 156.825C94.2128 161.046 107.713 161.037 120.162 156.799L132.425 186.406C112.109 193.848 89.8148 193.861 69.4894 186.444L81.7578 156.825ZM127.557 153.736C139.356 147.93 148.908 138.39 154.73 126.599L184.35 138.868C175.222 158.484 159.448 174.239 139.82 183.342L127.557 153.736ZM157.791 119.208C162.013 106.753 162.004 93.2534 157.766 80.8055L187.372 68.5415C194.814 88.8575 194.828 111.151 187.411 131.477L157.791 119.208Z" fill="#F4AD04"/>
<path d="M77.6309 133.857C79.8519 135.337 82.2499 136.625 84.8139 137.687L83.6659 140.459C80.9199 139.321 78.3509 137.938 75.9679 136.35L77.6309 133.857ZM92.0139 142.996C89.2069 142.435 86.4119 141.596 83.6659 140.459L84.8139 137.687C87.3789 138.749 89.9849 139.535 92.6019 140.058L92.0139 142.996ZM59.988 107.44C61.0556 112.782 63.1654 117.875 66.1879 122.408L63.6927 124.071C60.4527 119.212 58.1916 113.754 57.0472 108.027L59.988 107.44ZM125.421 136.348C120.562 139.588 115.104 141.849 109.377 142.994L108.789 140.054C114.131 138.986 119.225 136.876 123.757 133.854L125.421 136.348ZM59.583 82.3173C60.7204 79.5713 62.103 77.0013 63.6914 74.6183L66.1853 76.2813C64.7048 78.5023 63.4168 80.9013 62.3547 83.4653C61.2925 86.0293 60.5072 88.6363 59.9838 91.2533L57.0449 90.6643C57.6064 87.8573 58.4458 85.0623 59.583 82.3173ZM141.808 116.376C140.671 119.121 139.288 121.69 137.699 124.073L135.206 122.411C136.687 120.19 137.975 117.792 139.037 115.228C140.099 112.663 140.884 110.056 141.408 107.439L144.346 108.027C143.784 110.834 142.946 113.63 141.808 116.376ZM92.6019 58.6388C87.2599 59.7064 82.1659 61.8162 77.6339 64.8388L75.9699 62.3431C80.8289 59.1031 86.2869 56.8421 92.0139 55.6976L92.6019 58.6388ZM137.698 74.6203C140.938 79.4793 143.199 84.9373 144.344 90.6643L141.403 91.2533C140.336 85.9103 138.226 80.8173 135.203 76.2853L137.698 74.6203ZM117.725 58.2338C120.471 59.3711 123.04 60.7537 125.423 62.3418L123.761 64.8361C121.54 63.3556 119.141 62.0676 116.577 61.0055C114.013 59.9434 111.406 59.1581 108.789 58.6347L109.377 55.6953C112.184 56.2569 114.979 57.0965 117.725 58.2338Z" fill="white"/>
</svg>
