<svg width="201" height="200" viewBox="0 0 201 200" fill="none" xmlns="http://www.w3.org/2000/svg">
<path d="M125.807 160.053C92.641 173.791 54.6181 158.041 40.8804 124.875C27.1426 91.7086 42.8922 53.686 76.058 39.9483C109.224 26.2105 147.247 41.9601 160.985 75.1256C174.722 108.292 158.973 146.315 125.807 160.053Z" fill="white"/>
<path d="M146.394 118.29C135.932 143.547 106.976 155.541 81.7192 145.079C56.4619 134.617 44.468 105.662 54.9298 80.4037C65.3917 55.147 94.3472 43.1531 119.605 53.6149C144.862 64.0768 156.856 93.0327 146.394 118.29Z" fill="#0298EB"/>
<path d="M44.9946 79.5144L12.2761 67.0444L5.0459 104.098L13.6858 134.195L45.6174 119.821L44.9946 79.5144Z" fill="#0298EB"/>
<path d="M121.814 43.6839L134.039 10.873L96.932 3.92041L66.8999 12.7853L81.513 44.6083L121.814 43.6839Z" fill="#0298EB"/>
<path d="M156.669 122.003L189.571 133.982L196.246 96.8236L187.156 66.8589L155.443 81.7096L156.669 122.003Z" fill="#0298EB"/>
<path d="M80.37 155.756L68.6382 188.746L105.845 195.143L135.741 185.829L120.653 154.228L80.37 155.756Z" fill="#0298EB"/>
<path d="M47.4098 125.997L16.7056 138.715L31.4492 163.223L61.7266 185.506L74.929 153.632L47.4098 125.997Z" fill="white"/>
<path d="M75.1182 47.243L62.7976 16.377L38.1015 30.8027L15.4292 60.7897L47.1298 74.4034L75.1182 47.243Z" fill="white"/>
<path d="M155.116 73.6983L185.557 60.3616L170.32 36.1573L139.598 14.4917L127.043 46.6262L155.116 73.6983Z" fill="white"/>
<path d="M126.284 153.826L139.019 184.523L163.518 169.766L185.785 139.477L153.903 126.292L126.284 153.826Z" fill="white"/>
<path d="M139.201 7.61206C120.928 0.0433559 100.822 -1.93704 81.4241 1.92156C62.0255 5.78006 44.2072 15.3042 30.222 29.2894C16.2367 43.2747 6.71263 61.093 2.85413 80.4915C-1.00437 99.8895 0.975924 119.995 8.54472 138.268C16.1135 156.541 28.9307 172.158 45.3756 183.147C61.8205 194.135 81.1541 200 100.933 200C120.711 200 140.045 194.135 156.49 183.147C172.934 172.158 185.752 156.541 193.321 138.268C203.44 113.762 203.424 86.2435 193.278 61.7492C183.133 37.2546 163.684 17.785 139.201 7.61206ZM81.0331 148.041C71.5311 144.106 63.4101 137.441 57.6962 128.889C51.9824 120.338 48.9327 110.284 48.9327 100C48.9327 89.7155 51.9824 79.6615 57.6962 71.1105C63.4101 62.5591 71.5311 55.8941 81.0331 51.9584C90.5351 48.0226 100.99 46.9928 111.077 48.9993C121.164 51.0057 130.43 55.9582 137.702 63.2305C144.974 70.5025 149.927 79.7685 151.933 89.8555C153.94 99.9425 152.91 110.397 148.974 119.899C143.684 132.63 133.56 142.743 120.823 148.018C108.086 153.294 93.7761 153.302 81.0331 148.041ZM154.669 73.4095C148.863 61.6106 139.323 52.0584 127.532 46.2366L139.801 16.6171C159.417 25.7445 175.172 41.5185 184.275 61.1464L154.669 73.4095ZM120.141 43.1752C107.686 38.9539 94.1861 38.9629 81.7381 43.2009L69.4741 13.5942C89.7901 6.15216 112.084 6.13846 132.409 13.5556L120.141 43.1752ZM74.3421 46.2641C62.5431 52.07 52.991 61.6094 47.1692 73.4005L17.5496 61.1321C26.6771 41.5153 42.451 25.7607 62.079 16.6574L74.3421 46.2641ZM44.1077 80.7924C39.8865 93.2465 39.8955 106.746 44.1335 119.195L14.5267 131.458C7.08473 111.142 7.07113 88.8485 14.4882 68.5232L44.1077 80.7924ZM47.1966 126.59C53.0026 138.389 62.542 147.941 74.3331 153.763L62.0647 183.383C42.4479 174.255 26.6933 158.481 17.5899 138.853L47.1966 126.59ZM81.7241 156.825C94.1791 161.046 107.679 161.037 120.128 156.799L132.391 186.406C112.075 193.848 89.7811 193.861 69.4557 186.444L81.7241 156.825ZM127.523 153.736C139.322 147.93 148.874 138.39 154.696 126.599L184.316 138.868C175.188 158.484 159.414 174.239 139.786 183.342L127.523 153.736ZM157.757 119.208C161.979 106.753 161.97 93.2534 157.732 80.8055L187.338 68.5415C194.78 88.8575 194.794 111.151 187.377 131.477L157.757 119.208Z" fill="#0298EB"/>
<path d="M77.5972 133.857C79.8182 135.337 82.2162 136.625 84.7802 137.687L83.6322 140.459C80.8862 139.321 78.3172 137.938 75.9342 136.35L77.5972 133.857ZM91.9802 142.996C89.1732 142.435 86.3782 141.596 83.6322 140.459L84.7802 137.687C87.3452 138.749 89.9512 139.535 92.5682 140.058L91.9802 142.996ZM59.9543 107.44C61.0219 112.782 63.1317 117.875 66.1542 122.408L63.659 124.071C60.419 119.212 58.1579 113.754 57.0135 108.027L59.9543 107.44ZM125.387 136.348C120.528 139.588 115.07 141.849 109.343 142.994L108.755 140.054C114.097 138.986 119.191 136.876 123.723 133.854L125.387 136.348ZM59.5493 82.3173C60.6867 79.5713 62.0693 77.0013 63.6577 74.6183L66.1516 76.2813C64.6711 78.5023 63.3831 80.9013 62.321 83.4653C61.2588 86.0293 60.4735 88.6363 59.9501 91.2533L57.0112 90.6643C57.5727 87.8573 58.4121 85.0623 59.5493 82.3173ZM141.774 116.376C140.637 119.121 139.254 121.69 137.665 124.073L135.172 122.411C136.653 120.19 137.941 117.792 139.003 115.228C140.065 112.663 140.85 110.056 141.374 107.439L144.312 108.027C143.75 110.834 142.912 113.63 141.774 116.376ZM92.5682 58.6388C87.2262 59.7064 82.1322 61.8162 77.6002 64.8388L75.9362 62.3431C80.7952 59.1031 86.2532 56.8421 91.9802 55.6976L92.5682 58.6388ZM137.664 74.6203C140.904 79.4793 143.165 84.9373 144.31 90.6643L141.369 91.2533C140.302 85.9103 138.192 80.8173 135.169 76.2853L137.664 74.6203ZM117.691 58.2338C120.437 59.3711 123.006 60.7537 125.389 62.3418L123.727 64.8361C121.506 63.3556 119.107 62.0676 116.543 61.0055C113.979 59.9434 111.372 59.1581 108.755 58.6347L109.343 55.6953C112.15 56.2569 114.945 57.0965 117.691 58.2338Z" fill="white"/>
</svg>
